<svg xmlns="http://www.w3.org/2000/svg" viewBox="0 0 32 32" width="32" height="32">
  <defs>
    <linearGradient id="brainGradient" x1="0%" y1="0%" x2="100%" y2="100%">
      <stop offset="0%" style="stop-color:#8B5CF6;stop-opacity:1" />
      <stop offset="100%" style="stop-color:#EC4899;stop-opacity:1" />
    </linearGradient>
  </defs>
  <!-- Brain outline -->
  <path fill="url(#brainGradient)" d="M16 2C10.5 2 6 5.5 6 10c0 1.5.4 2.9 1.1 4.1C5.8 15.3 5 17 5 19c0 3.3 2.7 6 6 6h.5c.8 1.8 2.6 3 4.5 3s3.7-1.2 4.5-3h.5c3.3 0 6-2.7 6-6 0-2-.8-3.7-2.1-4.9.7-1.2 1.1-2.6 1.1-4.1 0-4.5-4.5-8-10-8z"/>
  <!-- Brain details - left hemisphere -->
  <path fill="none" stroke="#ffffff" stroke-width="1.2" stroke-linecap="round" d="M10 12c2-1 3 1 3 3s-2 3-3 2"/>
  <path fill="none" stroke="#ffffff" stroke-width="1.2" stroke-linecap="round" d="M9 18c1.5 0 2.5 1 2.5 2"/>
  <!-- Brain details - right hemisphere -->
  <path fill="none" stroke="#ffffff" stroke-width="1.2" stroke-linecap="round" d="M22 12c-2-1-3 1-3 3s2 3 3 2"/>
  <path fill="none" stroke="#ffffff" stroke-width="1.2" stroke-linecap="round" d="M23 18c-1.5 0-2.5 1-2.5 2"/>
  <!-- Center divide -->
  <path fill="none" stroke="#ffffff" stroke-width="1.5" stroke-linecap="round" d="M16 8v16"/>
  <!-- Neural connections -->
  <circle cx="12" cy="10" r="1" fill="#ffffff" opacity="0.8"/>
  <circle cx="20" cy="10" r="1" fill="#ffffff" opacity="0.8"/>
  <circle cx="14" cy="15" r="0.8" fill="#ffffff" opacity="0.6"/>
  <circle cx="18" cy="15" r="0.8" fill="#ffffff" opacity="0.6"/>
</svg>
